HIERARCHY
ROOT Hips
{
  OFFSET 140.64 99.6833 51.5606
  CHANNELS 6 Xposition Yposition Zposition Zrotation Xrotation Yrotation
  JOINT RightUpLeg
  {
    OFFSET -8.9458 -8.66707 0.101652
    CHANNELS 3 Zrotation Xrotation Yrotation
    JOINT RightLeg
    {
      OFFSET 0 -44.4227 1.3727
      CHANNELS 3 Zrotation Xrotation Yrotation
      JOINT RightFoot
      {
        OFFSET 0.253549 -42.0924 -1.46059
        CHANNELS 3 Zrotation Xrotation Yrotation
        JOINT RightToes
        {
          OFFSET 0.04 -4.41509 8.4991
          CHANNELS 3 Zrotation Xrotation Yrotation
          End Site
          {
            OFFSET -0.08 -0.137448 9.77979
          }
        }
      }
    }
  }
  JOINT Spine
  {
    OFFSET 0 11.8905 0
    CHANNELS 3 Zrotation Xrotation Yrotation
    JOINT Spine1
    {
      OFFSET 0 25.6574 0.127663
      CHANNELS 3 Zrotation Xrotation Yrotation
      JOINT RightShoulder
      {
        OFFSET -8.99 -0.362252 -0.22
        CHANNELS 3 Zrotation Xrotation Yrotation
        JOINT RightArm
        {
          OFFSET -10.2827 -0.00338 0.322123
          CHANNELS 3 Zrotation Xrotation Yrotation
          JOINT RightForeArm
          {
            OFFSET -32.8971 0.099144 -1.42434
            CHANNELS 3 Zrotation Xrotation Yrotation
            JOINT RightHand
            {
              OFFSET -27.4921 0.085362 1.02216
              CHANNELS 3 Zrotation Xrotation Yrotation
              End Site
              {
                OFFSET -16.6312 -0.6 1.50291
              }
            }
          }
        }
      }
      JOINT HEad
      {
        OFFSET 0 8.73416 0.011341
        CHANNELS 3 Zrotation Xrotation Yrotation
        End Site
        {
          OFFSET -0.29 12.7742 2.51395
        }
      }
      JOINT LeftShoulder1
      {
        OFFSET 8.99 -0.362252 -0.22
        CHANNELS 3 Zrotation Xrotation Yrotation
        JOINT LeftArm
        {
          OFFSET 10.2827 -0.00338 0.322123
          CHANNELS 3 Zrotation Xrotation Yrotation
          JOINT LeftForeArm
          {
            OFFSET 32.7669 0.099144 -1.42434
            CHANNELS 3 Zrotation Xrotation Yrotation
            JOINT LeftHand
            {
              OFFSET 27.5643 0.085362 1.02216
              CHANNELS 3 Zrotation Xrotation Yrotation
              End Site
              {
                OFFSET 16.7443 -0.6 1.50291
              }
            }
          }
        }
      }
    }
  }
  JOINT LeftUpLeg
  {
    OFFSET 8.9458 -8.66707 0.101652
    CHANNELS 3 Zrotation Xrotation Yrotation
    JOINT LeftLeg
    {
      OFFSET 0 -44.4227 1.3727
      CHANNELS 3 Zrotation Xrotation Yrotation
      JOINT LeftFoot
      {
        OFFSET -0.253549 -42.0924 -1.46059
        CHANNELS 3 Zrotation Xrotation Yrotation
        JOINT LeftToes
        {
          OFFSET -0.04 -4.41509 8.4991
          CHANNELS 3 Zrotation Xrotation Yrotation
          End Site
          {
            OFFSET 0.08 -0.047448 9.77979
          }
        }
      }
    }
  }
}
MOTION
Frames:	8
Frame Time:	0.0166667
145.065 97.5947 44.457 2.32752 9.54261 -160.808 -13.129 -12.2691 -1.63342 4.91594 46.6375 -1.53443 5.43793 -1.36141 -0.538253 0.0462048 0.000533403 0.662642 2.4671 8.95099 2.3552 5.78412 17.955 4.18175 21.9078 5.18965 19.1131 81.0773 -28.0805 43.3567 -16.8396 45.84 149.266 -8.98933 22.8033 -46.6206 -3.28431 -8.71828 5.5954 -3.18055e-015 -3.18055e-015 3.18055e-015 -89.8712 -55.946 -23.7334 -35.2139 59.2371 -91.7655 19.9047 12.418 -39.0584 16.7143 -21.2111 -0.775267 19.0175 54.7606 -30.1424 -12.9425 -9.09697 -0.467489 -1.32115e-009 1.56007e-007 -4.88604e-009 
144.256 98.1479 45.7172 2.93315 8.79363 -161.859 -12.4369 -13.2529 -1.53601 2.0121 45.0705 1.38914 6.92071 -2.07962 -0.538456 0.0462048 0.000533403 0.662642 2.3584 9.03025 2.39525 5.43362 18.0554 4.30076 21.8044 5.13825 18.9858 81.3521 -27.8122 42.6023 -16.4234 46.0244 148.816 -9.31106 22.8828 -46.169 -3.43471 -9.00534 5.18012 1.59028e-015 -6.36111e-015 -0 -89.5423 -55.3596 -22.3129 -36.6313 59.0024 -90.2237 19.0364 12.693 -39.4566 17.1602 -21.9188 0.635254 17.3622 54.0964 -28.4367 -12.4238 -8.6009 -0.440357 -1.32115e-009 1.56007e-007 -4.88603e-009 
143.381 98.6944 47.0953 3.53297 7.8711 -163.147 -11.7612 -14.5338 -1.55623 -1.20709 43.505 4.89297 8.86871 -3.37377 -0.544079 0.0462048 0.000533403 0.662642 2.18327 9.05254 2.54671 4.94725 18.0414 4.64952 21.6405 5.09711 18.947 81.6488 -27.6465 41.9719 -15.9306 46.525 148.218 -9.74945 22.984 -45.5175 -3.79238 -9.28923 4.78421 -0 0 3.18055e-015 -89.0692 -55.2961 -21.0733 -39.054 58.7352 -87.8275 17.8388 13.0554 -40.158 17.7631 -22.956 2.11943 15.2397 53.7482 -26.2224 -11.9443 -7.76143 -0.482312 -1.32115e-009 1.56007e-007 -4.88603e-009 
142.464 99.1744 48.5564 4.111 6.79824 -164.612 -11.1437 -16.0444 -1.75907 -4.53106 41.9285 8.72841 11.1639 -5.21462 -0.52827 0.0462048 0.000533403 0.662642 1.92284 8.98197 2.8004 4.34474 17.8526 5.20275 21.432 5.07129 19.0065 81.9108 -27.6206 41.492 -15.3899 47.2581 147.534 -10.2476 23.0892 -44.7335 -4.30567 -9.51186 4.40816 -1.59028e-015 0 3.18055e-015 -88.5089 -55.837 -20.2401 -42.3422 58.4423 -84.71 16.4212 13.4914 -41.0602 18.518 -24.1761 3.56512 12.6595 53.6715 -23.4927 -11.4501 -7.09107 -0.635231 -1.32115e-009 1.56007e-007 -4.88603e-009 
141.537 99.5224 50.0586 4.6431 5.63508 -166.138 -10.6111 -17.6994 -2.19887 -7.74619 40.4364 12.5615 13.6431 -7.48342 -0.471552 0.0462048 0.000533403 0.662642 1.56556 8.79302 3.13067 3.66638 17.4533 5.90754 21.2048 5.06554 19.1654 82.0794 -27.7753 41.1809 -14.838 48.1348 146.844 -10.7836 23.1921 -43.8618 -4.91025 -9.62492 4.04069 -3.18055e-015 -6.36111e-015 3.18055e-015 -88.0148 -56.9929 -20.0837 -46.1506 58.1377 -81.1515 14.9667 13.9537 -42.0417 19.3865 -25.4685 4.86083 9.69133 53.8417 -20.3274 -10.8582 -7.00424 -0.924347 -1.32115e-009 1.56007e-007 -4.88604e-009 
140.64 99.6833 51.5606 5.1129 4.47792 -167.564 -10.17 -19.4156 -2.89425 -10.6736 39.2771 16.0289 16.1006 -9.99829 -0.375725 0.0462048 0.000533403 0.662642 1.13212 8.48157 3.49465 2.96956 16.8472 6.6859 20.9996 5.08643 19.4207 82.0981 -28.1514 41.054 -14.3237 49.0653 146.229 -11.3604 23.2952 -42.9365 -5.53381 -9.60021 3.66337 3.18055e-015 -3.18055e-015 6.36111e-015 -87.8684 -58.6633 -20.9496 -49.9587 57.8566 -77.528 13.7153 14.359 -42.9808 20.3067 -26.7707 5.92624 6.48665 54.2441 -16.9048 -10.1082 -7.70031 -1.34994 -1.32115e-009 1.56007e-007 -4.88604e-009 
139.826 99.6041 53.0215 5.5294 3.43746 -168.716 -9.82693 -21.1724 -3.80282 -13.1618 38.9292 18.7906 18.2834 -12.6165 -0.258103 0.0462048 0.000533403 0.662642 0.691557 8.08069 3.84355 2.31582 16.0831 7.44662 20.8704 5.14306 19.7666 81.9183 -28.7753 41.1198 -13.9156 49.947 145.776 -11.9657 23.3991 -42.0208 -6.10577 -9.42856 3.2582 -1.59028e-015 0 6.36111e-015 -88.4648 -60.5861 -23.2525 -53.1512 57.6574 -74.2465 12.9149 14.6076 -43.7557 21.2299 -28.0889 6.743 3.28995 54.9119 -13.5102 -9.19635 -9.16201 -1.88911 -1.32115e-009 1.56007e-007 -4.88603e-009 
139.138 99.2562 54.411 5.89952 2.61025 -169.442 -9.69392 -22.9725 -4.83187 -14.9564 39.9554 20.4971 19.9027 -15.2386 -0.138934 0.0462048 0.000533403 0.662642 0.299621 7.64434 4.14043 1.74319 15.2369 8.10383 20.8742 5.24601 20.1968 81.501 -29.6411 41.3667 -13.7068 50.6455 145.577 -12.5319 23.497 -41.2507 -6.57246 -9.11398 2.81858 1.59028e-015 3.18055e-015 -0 -90.1703 -62.3159 -27.3436 -55.1673 57.5976 -71.6388 12.7333 14.628 -44.2383 22.0945 -29.4622 7.36295 0.392601 55.8908 -10.4798 -8.15088 -11.187 -2.50312 -1.32115e-009 1.56007e-007 -4.88604e-009 
